<?xml version="1.0" encoding="iso-8859-1"?>
<!-- Generator: Adobe Illustrator 19.0.0, SVG Export Plug-In . SVG Version: 6.00 Build 0)  -->
<svg version="1.1" id="Layer_1" xmlns="http://www.w3.org/2000/svg" xmlns:xlink="http://www.w3.org/1999/xlink" x="0px" y="0px"
	 viewBox="0 0 500.8 500.8" style="enable-background:new 0 0 500.8 500.8;" xml:space="preserve">
<circle style="fill:#BC628B;" cx="250.4" cy="250.4" r="248.8"/>
<path style="fill:#AA507D;" d="M426.4,74.4c96.8,97.6,96.8,254.4,0,352c-97.6,96.8-254.4,96.8-352,0"/>
<polygon style="fill:#B2C1BF;" points="63.2,184.8 0,101.6 55.2,10.4 185.6,28.8 216.8,178.4 165.6,204 "/>
<polyline style="fill:#9FADAB;" points="185.6,28.8 216.8,178.4 165.6,204 63.2,184.8 "/>
<polygon style="fill:#E5CFAC;" points="107.2,192.8 70.4,143.2 102.4,89.6 180,100 198.4,188.8 168,204 "/>
<polyline style="fill:#D3BA97;" points="180,100 198.4,188.8 168,204 107.2,192.8 "/>
<polygon style="fill:#B2C1BF;" points="437.6,184.8 500.8,101.6 445.6,10.4 315.2,28.8 284,178.4 335.2,204 "/>
<polyline style="fill:#9FADAB;" points="315.2,28.8 284,178.4 335.2,204 437.6,184.8 "/>
<polygon style="fill:#E5CFAC;" points="393.6,192.8 430.4,143.2 398.4,89.6 320.8,100 302.4,188.8 332.8,204 "/>
<polyline style="fill:#D3BA97;" points="320.8,100 302.4,188.8 332.8,204 393.6,192.8 "/>
<polygon style="fill:#B2C1BF;" points="100.8,192 250.4,143.2 400,192 350.4,431.2 250.4,490.4 150.4,431.2 "/>
<polygon style="fill:#C7D3D2;" points="100.8,192 250.4,266.4 400,192 350.4,431.2 250.4,490.4 150.4,431.2 "/>
<polyline style="fill:#B2C1BF;" points="250.4,143.2 400,192 350.4,431.2 250.4,490.4 "/>
<ellipse style="fill:#5E6664;" cx="188" cy="312.8" rx="15.2" ry="13.6"/>
<path style="fill:#2F423F;" d="M198.4,303.2c5.6,5.6,5.6,13.6,0,19.2s-15.2,5.6-21.6,0"/>
<ellipse style="fill:#5E6664;" cx="312.8" cy="312.8" rx="15.2" ry="13.6"/>
<path style="fill:#2F423F;" d="M323.2,303.2c5.6,5.6,5.6,13.6,0,19.2s-15.2,5.6-21.6,0"/>
<polygon style="fill:#77501D;" points="274.4,490.4 226.4,490.4 195.2,442.4 305.6,442.4 "/>
<polygon style="fill:#9E7738;" points="274.4,458.4 226.4,458.4 195.2,442.4 305.6,442.4 "/>
<g>
	<rect x="106.4" y="386.4" style="fill:#B2C1BF;" width="104" height="8"/>
	
		<rect x="106.452" y="419.947" transform="matrix(-0.9669 0.2551 -0.2551 -0.9669 416.4595 792.2792)" style="fill:#B2C1BF;" width="100.799" height="6.4"/>
</g>
<g>
	<rect x="290.4" y="386.4" style="fill:#C7D3D2;" width="104" height="8"/>
	
		<rect x="293.999" y="419.49" transform="matrix(0.9669 0.2551 -0.2551 0.9669 119.2247 -73.8721)" style="fill:#C7D3D2;" width="100.799" height="6.4"/>
</g>
<g>
</g>
<g>
</g>
<g>
</g>
<g>
</g>
<g>
</g>
<g>
</g>
<g>
</g>
<g>
</g>
<g>
</g>
<g>
</g>
<g>
</g>
<g>
</g>
<g>
</g>
<g>
</g>
<g>
</g>
</svg>
