<?xml version="1.0" standalone="no"?>
<!DOCTYPE svg PUBLIC "-//W3C//DTD SVG 20010904//EN"
 "http://www.w3.org/TR/2001/REC-SVG-20010904/DTD/svg10.dtd">
<svg version="1.0" xmlns="http://www.w3.org/2000/svg"
 width="720.000000pt" height="240.000000pt" viewBox="0 0 720.000000 240.000000"
 preserveAspectRatio="xMidYMid meet">
<metadata>
Created by potrace 1.16, written by Peter Selinger 2001-2019
</metadata>
<g transform="translate(0.000000,240.000000) scale(0.100000,-0.100000)"
fill="#000000" stroke="none">
<path d="M350 2270 c-19 -19 -20 -33 -20 -330 0 -295 -1 -314 -22 -373 -34
-94 -32 -256 4 -354 17 -48 22 -73 14 -73 -18 0 -153 -67 -161 -80 -4 -6 -3
-16 2 -21 6 -6 40 5 92 31 46 23 89 39 97 36 18 -7 18 -36 0 -36 -7 0 -50 -18
-94 -40 -58 -29 -79 -45 -75 -55 7 -21 18 -19 76 13 29 16 71 36 93 45 40 15
43 15 58 -2 16 -18 15 -19 -11 -25 -42 -11 -193 -85 -193 -96 0 -23 27 -19
103 19 148 72 193 65 161 -26 -23 -65 -30 -192 -14 -262 18 -83 67 -168 137
-238 l62 -61 -19 -25 c-27 -35 -27 -106 1 -141 33 -42 71 -56 152 -56 59 0 83
5 119 24 l46 24 48 -24 c100 -51 248 -24 280 51 19 47 18 73 -7 119 l-20 38
23 16 c12 9 38 33 57 54 20 21 40 38 45 38 5 0 42 -25 83 -56 91 -70 153 -94
241 -94 77 0 124 20 183 77 51 48 79 111 96 214 17 99 14 126 -21 166 -20 23
-32 28 -69 28 -60 0 -94 -31 -102 -91 -3 -24 -7 -64 -11 -89 -6 -52 -49 -105
-86 -105 -14 0 -66 30 -122 70 -54 38 -101 70 -105 70 -3 0 -6 44 -7 98 0 74
-5 109 -21 149 -20 50 -20 53 -3 68 23 21 74 8 174 -41 64 -32 96 -38 96 -16
0 12 -73 51 -151 82 -61 24 -66 27 -54 44 13 17 19 15 111 -28 60 -29 101 -43
107 -37 5 5 6 14 3 20 -6 9 -129 71 -170 85 -18 6 -18 8 -3 23 15 15 23 14
103 -26 68 -34 88 -40 95 -30 4 8 5 17 1 20 -14 14 -147 79 -159 79 -16 0 -16
3 2 46 48 115 53 259 14 376 -17 51 -19 89 -19 363 0 302 -3 337 -34 357 -28
19 -67 -2 -257 -139 l-204 -148 -141 1 -140 1 -48 37 c-27 20 -90 66 -140 102
-50 36 -118 85 -151 109 -67 49 -95 55 -125 25z m154 -422 c-16 -13 -44 -39
-61 -58 l-33 -35 0 180 1 180 61 -122 61 -123 -29 -22z m1006 86 l0 -177 -57
54 c-32 30 -60 57 -61 62 -4 7 108 237 115 237 1 0 3 -79 3 -176z m-808 -486
c53 -16 122 -79 143 -130 l17 -43 -36 -32 c-51 -47 -134 -69 -202 -54 -126 29
-227 159 -166 214 55 50 162 70 244 45z m690 -7 c58 -25 92 -63 85 -94 -27
-104 -167 -183 -283 -157 -56 13 -120 53 -129 81 -16 51 65 147 150 177 48 17
129 14 177 -7z"/>
<path d="M665 1405 c-48 -47 -21 -135 42 -135 60 0 85 89 38 135 -13 14 -31
25 -40 25 -9 0 -27 -11 -40 -25z"/>
<path d="M1183 1418 c-62 -30 -41 -148 27 -148 39 0 60 29 60 83 0 41 -3 48
-30 62 -16 8 -30 15 -32 14 -2 0 -13 -5 -25 -11z"/>
<path d="M3614 1918 c-31 -14 -48 -53 -47 -101 2 -33 9 -48 33 -69 43 -39 91
-38 132 2 28 28 30 35 26 82 -4 42 -11 56 -34 75 -31 24 -74 29 -110 11z"/>
<path d="M5865 1895 c-55 -19 -108 -34 -117 -35 -12 0 -18 -8 -18 -24 0 -26
21 -36 78 -36 l32 0 0 -451 0 -450 -35 -15 c-19 -7 -44 -14 -55 -14 -15 0 -20
-7 -20 -25 l0 -25 190 0 190 0 0 25 c0 18 -5 25 -20 25 -11 0 -36 7 -55 14
l-35 15 0 515 c0 485 -1 516 -17 516 -10 0 -63 -16 -118 -35z"/>
<path d="M2430 1831 c0 -14 10 -21 37 -26 79 -15 73 27 73 -469 l0 -444 -31
-11 c-18 -6 -43 -11 -55 -11 -19 0 -24 -5 -24 -25 l0 -25 208 0 c273 0 356 10
448 54 117 55 197 149 245 286 32 94 33 257 0 355 -54 167 -177 281 -343 320
-47 11 -128 15 -310 15 -237 0 -248 -1 -248 -19z m498 -56 c34 -11 69 -32 106
-66 92 -84 135 -201 136 -371 0 -158 -42 -278 -126 -360 -67 -65 -109 -80
-231 -86 l-103 -5 0 452 0 451 83 0 c46 0 106 -7 135 -15z"/>
<path d="M3615 1583 c-60 -20 -116 -37 -122 -39 -7 -2 -13 -15 -13 -29 0 -24
3 -25 55 -25 l55 0 0 -296 0 -295 -35 -15 c-19 -7 -44 -14 -55 -14 -15 0 -20
-7 -20 -25 l0 -25 190 0 190 0 0 25 c0 18 -5 25 -20 25 -11 0 -36 7 -55 14
l-35 15 0 360 c0 282 -3 361 -12 361 -7 0 -62 -17 -123 -37z"/>
<path d="M4240 1607 c-122 -29 -206 -96 -258 -207 -24 -50 -26 -67 -27 -185 0
-104 4 -140 19 -180 56 -146 177 -226 343 -226 68 0 148 15 168 33 18 16 24 7
19 -34 -6 -60 -42 -169 -63 -195 -49 -60 -139 -79 -247 -52 -53 14 -60 22 -40
51 24 34 20 73 -10 97 -33 26 -81 27 -113 2 -32 -25 -36 -98 -6 -131 60 -67
158 -100 296 -100 123 0 187 21 246 82 102 107 113 169 113 670 l0 390 -27 -7
c-16 -3 -47 -16 -70 -27 l-42 -21 -52 22 c-64 28 -173 35 -249 18z m242 -83
l28 -15 0 -292 0 -293 -37 -18 c-44 -21 -135 -32 -186 -22 -108 20 -187 220
-158 397 6 41 23 98 37 126 28 58 91 118 139 133 39 12 141 3 177 -16z"/>
<path d="M5135 1604 c-76 -18 -130 -51 -184 -109 -55 -60 -79 -114 -93 -214
-13 -97 0 -198 38 -281 40 -87 99 -138 204 -175 64 -23 194 -21 259 4 l51 19
0 -32 c0 -53 -35 -163 -65 -202 -15 -20 -43 -42 -61 -50 -44 -18 -128 -18
-192 1 -51 15 -52 17 -37 38 39 55 5 127 -60 127 -50 0 -85 -36 -85 -89 0 -50
40 -93 120 -129 77 -35 250 -43 337 -16 99 31 180 132 203 254 15 76 13 870
-1 870 -6 0 -38 -12 -71 -27 -52 -23 -63 -25 -81 -13 -63 39 -179 49 -282 24z
m251 -76 l24 -11 0 -299 0 -299 -37 -16 c-60 -25 -163 -29 -208 -8 -113 54
-169 281 -114 461 25 80 90 156 154 179 43 16 138 12 181 -7z"/>
<path d="M6160 1575 c0 -21 5 -25 29 -25 16 0 41 -4 54 -9 l25 -10 4 -278 c5
-309 8 -324 73 -381 91 -80 311 -86 416 -12 l29 21 0 -35 c0 -47 13 -47 157 1
96 33 113 41 113 59 0 26 -17 34 -71 34 l-39 0 0 330 0 330 -135 0 -135 0 0
-25 c0 -22 4 -25 33 -25 18 0 43 -7 55 -16 22 -15 22 -17 22 -298 l0 -282 -30
-23 c-68 -50 -180 -66 -246 -35 -21 10 -40 31 -54 58 -19 40 -20 61 -20 344
l0 302 -140 0 -140 0 0 -25z"/>
</g>
</svg>
